HIERARCHY
ROOT root
{
	OFFSET	0	13.1	24.9
	CHANNELS 6  Xposition Yposition Zposition Xrotation Yrotation Zrotation
	JOINT spine_1
	{
		OFFSET	0	9.99999	0
		CHANNELS 3  Xrotation Yrotation Zrotation
		JOINT spine_2
		{
			OFFSET	0	112	-10
			CHANNELS 3  Xrotation Yrotation Zrotation
			JOINT spine_3
			{
				OFFSET	0	206.5	19.3
				CHANNELS 3  Xrotation Yrotation Zrotation
				JOINT spine_4
				{
					OFFSET	0	110.4	14.6
					CHANNELS 3  Xrotation Yrotation Zrotation
					JOINT neck_1
					{
						OFFSET	0	71.8	-50.3
						CHANNELS 3  Xrotation Yrotation Zrotation
						JOINT neck_2
						{
							OFFSET	0	86.2	-25.8
							CHANNELS 3  Xrotation Yrotation Zrotation
							JOINT head_ee
							{
								OFFSET	0	179.8	-8.7
								CHANNELS 3  Xrotation Yrotation Zrotation
								End Site
								{
									OFFSET	1	0	0
								}
							}
						}
					}
					JOINT left_clavicle
					{
						OFFSET	-43.2	22.4	-70.8
						CHANNELS 3  Xrotation Yrotation Zrotation
						JOINT left_shoulder
						{
							OFFSET	-93.9	-5.79999	48.7
							CHANNELS 3  Xrotation Yrotation Zrotation
							JOINT left_elbow
							{
								OFFSET	-291.4	-30.8	15.2
								CHANNELS 3  Xrotation Yrotation Zrotation
								JOINT left_lowarm_twist
								{
									OFFSET	-110.7	-3.89999	13.6
									CHANNELS 3  Xrotation Yrotation Zrotation
									JOINT left_hand
									{
										OFFSET	-110.7	-3.89999	13.6
										CHANNELS 3  Xrotation Yrotation Zrotation
										JOINT left_ee
										{
											OFFSET	-80.8	-5.10001	12.1
											CHANNELS 3  Xrotation Yrotation Zrotation
											End Site
											{
												OFFSET	1	0	0
											}
										}
									}
								}
							}
						}
					}
					JOINT right_clavicle
					{
						OFFSET	43.2	22.4	-70.8
						CHANNELS 3  Xrotation Yrotation Zrotation
						JOINT right_shoulder
						{
							OFFSET	93.9	-5.79999	48.7
							CHANNELS 3  Xrotation Yrotation Zrotation
							JOINT right_elbow
							{
								OFFSET	291.4	-30.8	15.2
								CHANNELS 3  Xrotation Yrotation Zrotation
								JOINT right_lowarm_twist
								{
									OFFSET	110.7	-3.89999	13.6
									CHANNELS 3  Xrotation Yrotation Zrotation
									JOINT right_hand
									{
										OFFSET	110.7	-3.89999	13.6
										CHANNELS 3  Xrotation Yrotation Zrotation
										JOINT right_ee
										{
											OFFSET	80.8	-5.10001	12.1
											CHANNELS 3  Xrotation Yrotation Zrotation
											End Site
											{
												OFFSET	1	0	0
											}
										}
									}
								}
							}
						}
					}
				}
			}
		}
	}
	JOINT left_hip
	{
		OFFSET	-82.8	-127.5	0.300001
		CHANNELS 3  Xrotation Yrotation Zrotation
		JOINT left_knee
		{
			OFFSET	-28.2	-396.7	2.2
			CHANNELS 3  Xrotation Yrotation Zrotation
			JOINT left_ankle
			{
				OFFSET	-11.7	-411.3	35.4
				CHANNELS 3  Xrotation Yrotation Zrotation
				JOINT left_toes
				{
					OFFSET	0	-60	-88.6
					CHANNELS 3  Xrotation Yrotation Zrotation
					JOINT left_foot_ee
					{
						OFFSET	-22.5	-16.5	-42.2
						CHANNELS 3  Xrotation Yrotation Zrotation
						End Site
						{
							OFFSET	1	0	0
						}
					}
				}
			}
		}
	}
	JOINT right_hip
	{
		OFFSET	82.8	-127.5	0.300001
		CHANNELS 3  Xrotation Yrotation Zrotation
		JOINT right_knee
		{
			OFFSET	28.2	-396.7	2.2
			CHANNELS 3  Xrotation Yrotation Zrotation
			JOINT right_ankle
			{
				OFFSET	11.7	-411.3	35.4
				CHANNELS 3  Xrotation Yrotation Zrotation
				JOINT right_toes
				{
					OFFSET	0	-60	-88.6
					CHANNELS 3  Xrotation Yrotation Zrotation
					JOINT right_foot_ee
					{
						OFFSET	22.5	-16.5	-42.2
						CHANNELS 3  Xrotation Yrotation Zrotation
						End Site
						{
							OFFSET	1	0	0
						}
					}
				}
			}
		}
	}
}
MOTION
Frames: 5
Frame Time: 0.02
2832.6016901 688.999 -1644.88385315 22.8324691718 72.9758293721 -25.8662662878 0.335895 0.460076 3.20436 0.34157 0.255351 3.22711 0.358384 -0.408828 3.2113 0.34401 0.103192 3.23555 -21.148 5.77303 -1.75003 -21.3695 11.9886 0.92898 -0.0 0.0 -0.0 -3.36478 22.3244 -2.13553 -0.665353 -30.92 57.8757 1.55372 -37.5816 0.528679 -31.8613 -2.13008 3.41701 2.87171 -1.16682 19.1054 -0.0 0.0 -0.0 10.9927 26.0517 -21.0889 -28.7268 31.1731 -67.9608 0.567026 15.6896 -0.0781251 8.1646 -0.215306 1.01984 5.96205 -5.5605 -46.7812 0.0 0.0 0.0 4.70664 -12.8162 8.43727 -28.9744 0.0819817 4.39861 32.5303 10.1601 -4.16413 -26.7279 0.0 0.0 -0.0 0.0 -0.0 -1.17039 12.6598 -0.0923966 -43.609 0.712189 -6.49597 24.8875 -7.25453 3.31783 7.09339 -0.0 -0.0 0.0 0.0 0.0 
2812.60330952 691.843 -1604.09802044 44.1121272598 78.7071624489 -47.2456586391 0.0808333 0.182811 3.0997 0.0861782 -0.0147044 3.10505 0.0876264 -0.662972 3.03355 0.0748284 -0.1758 3.10011 -24.6319 5.33736 -0.896281 -24.8583 10.674 1.85224 -0.0 0.0 -0.0 -3.34671 23.1515 -1.93761 0.799877 -30.5364 58.0916 1.93795 -43.8264 0.779633 -30.969 -2.04585 3.33955 2.29744 -1.94729 14.757 -0.0 0.0 -0.0 10.2918 24.1688 -19.7047 -31.18 32.2076 -67.225 0.566387 15.6728 -0.0779525 7.71104 -0.207177 0.96247 6.12798 -5.43936 -48.3896 0.0 0.0 0.0 -0.69967 -13.8166 9.2031 -25.3116 0.194908 3.84792 32.6216 10.6097 -4.17611 -27.2086 0.0 0.0 -0.0 0.0 -0.0 9.60861 5.40949 -1.22502 -44.7844 0.798855 -6.65467 29.8851 -4.05947 3.87833 7.12213 -0.0 -0.0 0.0 0.0 0.0 
2808.85841628 692.933 -1563.59640759 56.4295736779 83.4853106606 -59.453880368 0.80932 0.180714 2.88602 0.813954 -0.00321881 2.89166 0.814902 -0.571114 2.83475 0.803708 -0.116446 2.88932 -23.9406 5.89958 -0.948089 -24.2066 11.7953 2.02206 -0.0 0.0 -0.0 -3.24178 22.8165 -1.86091 3.0044 -29.848 58.9197 1.96431 -44.2129 0.797944 -31.1933 -2.06691 3.35915 1.28248 0.678375 8.87202 -0.0 0.0 -0.0 9.99094 23.2846 -19.1129 -32.4779 31.1835 -66.7375 0.602624 16.6217 -0.0880305 7.32497 -0.1999 0.913691 6.20375 -6.51975 -49.6331 0.0 0.0 0.0 1.45181 -15.1554 9.65256 -25.3226 0.194622 3.84958 30.8788 11.4866 -3.99922 -29.7589 0.0 0.0 -0.0 0.0 -0.0 14.9538 5.37672 -2.4299 -47.5762 1.01769 -7.02435 31.8935 -8.89618 4.09254 8.44266 -0.0 -0.0 0.0 0.0 0.0 
2797.1709278 693.571 -1531.95595889 105.444413029 85.0926964988 -108.826080256 0.927647 -0.0899398 2.90229 0.932292 -0.27436 2.89071 0.919116 -0.832032 2.78203 0.908519 -0.382414 2.87842 -22.6823 4.93723 -1.32763 -22.8598 10.1388 1.07878 -0.0 0.0 -0.0 -3.41165 23.0044 -2.05868 3.83573 -28.7349 59.2344 2.1571 -46.8925 0.935619 -31.3696 -2.08351 3.37449 1.29746 -0.605624 8.45443 -0.0 0.0 -0.0 9.53757 21.7588 -18.2325 -33.2649 30.7643 -66.6082 0.639698 17.5829 -0.0989335 8.98865 -0.228912 1.12422 6.40554 -5.75242 -51.4454 0.0 0.0 0.0 -4.46089 -16.198 9.79194 -13.971 0.318731 2.11503 30.4169 12.2528 -3.95518 -32.0808 0.0 0.0 -0.0 0.0 -0.0 19.6317 4.22472 -2.70984 -49.0232 1.13817 -7.21173 34.0539 -9.61875 4.31576 8.82312 -0.0 -0.0 0.0 0.0 0.0 
2780.75609042 688.954 -1522.64101786 134.752937389 84.2328171301 -138.213329866 1.2124 -0.312985 2.88993 1.21691 -0.496168 2.86419 1.19222 -1.03171 2.71771 1.1824 -0.589732 2.84641 -24.6868 4.72788 -1.50024 -24.8723 9.7554 0.985272 -0.0 0.0 -0.0 -4.08505 22.5831 -3.09512 5.6318 -28.6652 60.4254 2.46357 -50.6604 1.16625 -31.3422 -2.08093 3.37211 0.875377 2.03532 6.68274 -0.0 0.0 -0.0 8.99408 16.5606 -17.3887 -36.5955 36.2082 -63.5934 0.63407 17.4376 -0.0972403 8.08099 -0.213842 1.00926 6.48157 -7.74009 -53.1682 0.0 0.0 0.0 -5.74521 -16.7323 9.67004 -12.9664 0.313122 1.96101 33.1427 10.83 -4.23085 -36.7156 0.0 0.0 -0.0 0.0 -0.0 23.9502 2.59343 -2.12512 -49.9045 1.21387 -7.32436 33.8943 -12.4646 4.31968 10.5845 -0.0 -0.0 0.0 0.0 0.0 
